<svg width="44" height="44" viewBox="0 0 44 44" fill="none" xmlns="http://www.w3.org/2000/svg">
<ellipse cx="18.3333" cy="11" rx="7.33333" ry="7.33333" stroke="#C684D8" stroke-width="4"/>
<path d="M33.0786 22.6702L33.6701 21.864L33.6701 21.864L33.0786 22.6702ZM34.8333 15.9341L34.1417 16.6564C34.5284 17.0267 35.1382 17.0267 35.5249 16.6564L34.8333 15.9341ZM36.5881 22.6702L35.9965 21.864L35.9965 21.864L36.5881 22.6702ZM34.8333 23.5172L34.8333 24.5172H34.8333L34.8333 23.5172ZM33.6701 21.864C32.8933 21.294 32.024 20.5728 31.3587 19.8035C30.6672 19.004 30.3333 18.3095 30.3333 17.7773H28.3333C28.3333 19.0499 29.0672 20.2113 29.8459 21.1118C30.6508 22.0425 31.6541 22.8653 32.487 23.4765L33.6701 21.864ZM30.3333 17.7773C30.3333 16.591 30.8897 15.9695 31.486 15.7604C32.1104 15.5416 33.1035 15.6623 34.1417 16.6564L35.5249 15.2118C34.0882 13.8362 32.3313 13.3448 30.8244 13.8731C29.2895 14.4111 28.3333 15.8961 28.3333 17.7773H30.3333ZM37.1796 23.4765C38.0125 22.8654 39.0158 22.0425 39.8207 21.1118C40.5994 20.2114 41.3333 19.0499 41.3333 17.7773H39.3333C39.3333 18.3095 38.9994 19.004 38.3079 19.8035C37.6426 20.5728 36.7733 21.294 35.9965 21.864L37.1796 23.4765ZM41.3333 17.7773C41.3333 15.8961 40.3771 14.4111 38.8422 13.873C37.3353 13.3448 35.5784 13.8362 34.1417 15.2118L35.5249 16.6564C36.5631 15.6623 37.5562 15.5416 38.1806 15.7604C38.777 15.9695 39.3333 16.5909 39.3333 17.7773H41.3333ZM32.487 23.4765C33.1884 23.9911 33.845 24.5172 34.8333 24.5172L34.8333 22.5172C34.6207 22.5172 34.5078 22.4786 33.6701 21.864L32.487 23.4765ZM35.9965 21.864C35.1588 22.4786 35.0459 22.5172 34.8333 22.5172L34.8333 24.5172C35.8216 24.5172 36.4783 23.9911 37.1796 23.4765L35.9965 21.864Z" fill="white"/>
<path d="M23.8333 37.7943C22.1664 38.2468 20.3016 38.5 18.3333 38.5C11.2457 38.5 5.5 35.2168 5.5 31.1667C5.5 27.1166 11.2457 23.8333 18.3333 23.8333C25.421 23.8333 31.1667 27.1166 31.1667 31.1667C31.1667 31.7997 31.0263 32.414 30.7624 33" stroke="#C684D8" stroke-width="4" stroke-linecap="round"/>
</svg>
